<svg viewBox="0 0 100 100" fill="none" xmlns="http://www.w3.org/2000/svg">
  <defs>
    <linearGradient id="fav-blue" x1="0%" y1="0%" x2="100%" y2="100%">
      <stop offset="0%" stop-color="#60a5fa" />
      <stop offset="100%" stop-color="#2563eb" />
    </linearGradient>
  </defs>
  <rect width="100" height="100" rx="22" fill="#050505" />
  <circle cx="50" cy="50" r="36" stroke="url(#fav-blue)" stroke-width="3.5" />
  <path
    d="M36 32 V56 H42 V40 H50 C55 40 58 43 58 48 C58 53 55 56 50 56 H36 V62 H52 C60 62 66 56 66 48 C66 40 60 34 52 34 H36 Z"
    fill="#ffffff"
  />
  <path
    d="M64 32 H58 V62 H70 C75 62 78 59 78 54 C78 49 75 46 70 46 H64 V32 Z M64 38 V44 H68 C70 44 71 45 71 47 C71 49 70 50 68 50 H64 V38 Z"
    fill="url(#fav-blue)"
  />
</svg>
